<?xml version="1.0" standalone="no"?><!DOCTYPE svg PUBLIC "-//W3C//DTD SVG 1.1//EN" "http://www.w3.org/Graphics/SVG/1.1/DTD/svg11.dtd"><svg t="1694315619239" class="icon" viewBox="0 0 1024 1024" version="1.1" xmlns="http://www.w3.org/2000/svg" p-id="5396" xmlns:xlink="http://www.w3.org/1999/xlink" width="200" height="200"><path d="M512 0a512 512 0 1 0 512 512A512 512 0 0 0 512 0z m0 427.940299a84.059701 84.059701 0 1 1-84.059701 84.059701 84.059701 84.059701 0 0 1 84.059701-84.059701zM99.343284 511.082985a423.431642 423.431642 0 0 1 56.014328-211.219104A415.713433 415.713433 0 0 1 308.575522 145.19403l137.552239 239.035224a142.366567 142.366567 0 0 0-75.806567 125.554627z m610.273432 362.832239A406.237612 406.237612 0 0 1 512 924.656716a415.713433 415.713433 0 0 1-209.232239-56.549253l134.801194-236.895523a140.991045 140.991045 0 0 0 146.722388 1.299105l135.488956 235.596418z m-55.93791-363.978508a142.290149 142.290149 0 0 0-75.118806-125.325373l136.864478-237.965373L725.970149 152.835821a414.872836 414.872836 0 0 1 143.054329 148.556418A423.584478 423.584478 0 0 1 924.656716 512.611343z" p-id="5397" fill="#e0e0f0"></path></svg>