<?xml version="1.0" standalone="no"?><!DOCTYPE svg PUBLIC "-//W3C//DTD SVG 1.1//EN" "http://www.w3.org/Graphics/SVG/1.1/DTD/svg11.dtd"><svg t="1663342053097" class="icon" viewBox="0 0 1024 1024" version="1.1" xmlns="http://www.w3.org/2000/svg" p-id="11108" xmlns:xlink="http://www.w3.org/1999/xlink" width="200" height="200"><path d="M533.293176 788.841412a60.235294 60.235294 0 1 1 85.202824 85.202823l-42.616471 42.586353c-129.355294 129.385412-339.124706 129.385412-468.510117 0-129.385412-129.385412-129.385412-339.124706 0-468.510117l42.586353-42.616471a60.235294 60.235294 0 1 1 85.202823 85.202824l-42.61647 42.586352a210.823529 210.823529 0 1 0 298.164706 298.164706l42.586352-42.61647z m255.548236-255.548236l42.61647-42.586352a210.823529 210.823529 0 1 0-298.164706-298.164706l-42.586352 42.61647a60.235294 60.235294 0 1 1-85.202824-85.202823l42.616471-42.586353c129.355294-129.385412 339.124706-129.385412 468.510117 0 129.385412 129.385412 129.385412 339.124706 0 468.510117l-42.586353 42.616471a60.235294 60.235294 0 1 1-85.202823-85.202824zM192.542118 192.542118a60.235294 60.235294 0 0 1 85.202823 0l553.712941 553.712941a60.235294 60.235294 0 0 1-85.202823 85.202823L192.542118 277.744941a60.235294 60.235294 0 0 1 0-85.202823z" p-id="11109" fill="#aa0000"></path></svg>