<svg t="1632061912061" class="icon" viewBox="0 0 1024 1024" version="1.1" xmlns="http://www.w3.org/2000/svg" p-id="8227" width="200" height="200"><path d="M337.477 775.045A325.555 325.555 0 0 0 532 839.273c180.47 0 327.273-146.803 327.273-327.273 0-72.798-23.891-140.113-64.228-194.523L337.478 775.045z m-59.194-56.536l460.225-460.227A325.738 325.738 0 0 0 532 184.727c-180.45 0-327.273 146.823-327.273 327.273 0 78.238 27.614 150.137 73.556 206.509zM532 102.909c225.573 0 409.091 183.518 409.091 409.091 0 225.532-183.478 409.091-409.091 409.091-225.573 0-409.091-183.518-409.091-409.091 0-225.613 183.518-409.091 409.091-409.091z" p-id="8228" fill="#D81E06"></path></svg>